<?xml version="1.0" encoding="UTF-8"?>
<svg xmlns="http://www.w3.org/2000/svg" xmlns:xlink="http://www.w3.org/1999/xlink" width="1920" height="1080" viewBox="0 0 1920 1080">
<defs>
<g>
<g id="glyph-0-0">
<path d="M 5.488281 -3.054688 C 5.773438 -2.828125 6.011719 -2.535156 6.199219 -2.179688 C 6.390625 -1.824219 6.484375 -1.378906 6.484375 -0.847656 C 6.484375 0.0859375 6.164062 0.855469 5.527344 1.464844 C 4.890625 2.074219 4.078125 2.375 3.097656 2.375 C 2.339844 2.375 1.695312 2.195312 1.171875 1.835938 C 0.648438 1.476562 0.382812 1.058594 0.382812 0.578125 C 0.382812 0.359375 0.4375 0.164062 0.546875 0 C 0.65625 -0.164062 0.824219 -0.246094 1.046875 -0.246094 C 1.308594 -0.246094 1.507812 -0.179688 1.644531 -0.0429688 C 1.78125 0.09375 1.847656 0.242188 1.847656 0.402344 C 1.847656 0.542969 1.824219 0.714844 1.777344 0.925781 C 1.730469 1.132812 1.691406 1.285156 1.667969 1.386719 C 1.703125 1.417969 1.757812 1.457031 1.835938 1.511719 C 1.914062 1.5625 2.007812 1.613281 2.117188 1.660156 C 2.230469 1.707031 2.367188 1.75 2.527344 1.785156 C 2.691406 1.824219 2.882812 1.84375 3.097656 1.84375 C 3.375 1.84375 3.640625 1.785156 3.886719 1.671875 C 4.132812 1.558594 4.34375 1.394531 4.511719 1.171875 C 4.699219 0.929688 4.839844 0.652344 4.929688 0.339844 C 5.023438 0.03125 5.070312 -0.363281 5.070312 -0.839844 C 5.070312 -1.453125 4.902344 -1.957031 4.5625 -2.359375 C 4.21875 -2.761719 3.773438 -2.960938 3.214844 -2.960938 C 2.867188 -2.960938 2.542969 -2.898438 2.242188 -2.765625 C 1.941406 -2.636719 1.671875 -2.417969 1.433594 -2.117188 L 0.996094 -2.285156 L 1.550781 -6.984375 L 6.210938 -6.984375 L 6.210938 -5.828125 L 2.074219 -5.828125 L 1.738281 -3.066406 C 1.933594 -3.203125 2.191406 -3.34375 2.507812 -3.480469 C 2.828125 -3.617188 3.179688 -3.683594 3.558594 -3.683594 C 3.878906 -3.683594 4.207031 -3.636719 4.546875 -3.539062 C 4.886719 -3.441406 5.203125 -3.277344 5.488281 -3.054688 Z "/>
</g>
<g id="glyph-0-1">
<path d="M 6.6875 -6.082031 C 6.964844 -5.746094 7.171875 -5.355469 7.308594 -4.90625 C 7.445312 -4.457031 7.511719 -3.988281 7.511719 -3.496094 C 7.511719 -2.90625 7.429688 -2.378906 7.257812 -1.910156 C 7.089844 -1.445312 6.859375 -1.058594 6.5625 -0.75 C 6.257812 -0.433594 5.898438 -0.191406 5.480469 -0.03125 C 5.066406 0.128906 4.601562 0.207031 4.089844 0.207031 C 3.527344 0.207031 3.03125 0.113281 2.589844 -0.0703125 C 2.152344 -0.257812 1.796875 -0.515625 1.523438 -0.839844 C 1.238281 -1.179688 1.023438 -1.574219 0.882812 -2.027344 C 0.742188 -2.480469 0.671875 -2.972656 0.671875 -3.496094 C 0.671875 -4.011719 0.738281 -4.488281 0.875 -4.921875 C 1.011719 -5.355469 1.226562 -5.75 1.515625 -6.101562 C 1.792969 -6.4375 2.152344 -6.707031 2.589844 -6.902344 C 3.03125 -7.097656 3.53125 -7.195312 4.09375 -7.195312 C 4.691406 -7.195312 5.199219 -7.09375 5.625 -6.894531 C 6.050781 -6.695312 6.402344 -6.421875 6.6875 -6.082031 M 6.074219 -3.496094 C 6.074219 -4.527344 5.898438 -5.328125 5.542969 -5.898438 C 5.191406 -6.46875 4.710938 -6.75 4.101562 -6.75 C 3.484375 -6.75 3 -6.46875 2.644531 -5.898438 C 2.289062 -5.328125 2.109375 -4.527344 2.109375 -3.496094 C 2.109375 -2.515625 2.28125 -1.726562 2.621094 -1.128906 C 2.960938 -0.53125 3.449219 -0.234375 4.089844 -0.234375 C 4.726562 -0.234375 5.21875 -0.53125 5.558594 -1.128906 C 5.902344 -1.726562 6.074219 -2.515625 6.074219 -3.496094 Z "/>
</g>
<g id="glyph-0-2">
<path d="M 2.703125 -0.75 C 2.703125 -0.503906 2.613281 -0.296875 2.4375 -0.125 C 2.261719 0.0429688 2.054688 0.128906 1.808594 0.128906 C 1.566406 0.128906 1.355469 0.0429688 1.179688 -0.125 C 1.007812 -0.296875 0.917969 -0.503906 0.917969 -0.75 C 0.917969 -0.992188 1.007812 -1.203125 1.179688 -1.375 C 1.355469 -1.550781 1.566406 -1.640625 1.808594 -1.640625 C 2.054688 -1.640625 2.261719 -1.550781 2.4375 -1.375 C 2.613281 -1.203125 2.703125 -0.992188 2.703125 -0.75 Z "/>
</g>
<g id="glyph-0-3">
<path d="M 5.128906 -7.050781 C 5.128906 -6.285156 4.925781 -5.695312 4.511719 -5.273438 C 4.097656 -4.851562 3.566406 -4.640625 2.917969 -4.640625 C 2.265625 -4.640625 1.734375 -4.851562 1.324219 -5.273438 C 0.914062 -5.695312 0.710938 -6.285156 0.710938 -7.050781 C 0.710938 -7.769531 0.910156 -8.351562 1.3125 -8.796875 C 1.714844 -9.238281 2.25 -9.460938 2.921875 -9.460938 C 3.585938 -9.460938 4.121094 -9.238281 4.523438 -8.796875 C 4.929688 -8.351562 5.128906 -7.769531 5.128906 -7.050781 M 4.03125 -7.050781 C 4.03125 -7.617188 3.9375 -8.082031 3.75 -8.441406 C 3.5625 -8.804688 3.289062 -8.984375 2.921875 -8.984375 C 2.550781 -8.984375 2.269531 -8.804688 2.085938 -8.441406 C 1.902344 -8.082031 1.808594 -7.617188 1.808594 -7.050781 C 1.808594 -6.472656 1.902344 -6.003906 2.089844 -5.648438 C 2.277344 -5.292969 2.550781 -5.117188 2.917969 -5.117188 C 3.28125 -5.117188 3.558594 -5.292969 3.746094 -5.648438 C 3.933594 -6.003906 4.03125 -6.472656 4.03125 -7.050781 M 10.1875 -2.199219 C 10.1875 -1.4375 9.984375 -0.84375 9.570312 -0.421875 C 9.15625 -0.00390625 8.625 0.207031 7.976562 0.207031 C 7.324219 0.207031 6.792969 -0.00390625 6.382812 -0.421875 C 5.972656 -0.84375 5.769531 -1.4375 5.769531 -2.199219 C 5.769531 -2.921875 5.96875 -3.503906 6.371094 -3.945312 C 6.773438 -4.386719 7.308594 -4.609375 7.980469 -4.609375 C 8.644531 -4.609375 9.179688 -4.386719 9.582031 -3.945312 C 9.988281 -3.503906 10.1875 -2.921875 10.1875 -2.199219 M 9.089844 -2.199219 C 9.089844 -2.765625 8.996094 -3.230469 8.808594 -3.59375 C 8.621094 -3.953125 8.347656 -4.132812 7.980469 -4.132812 C 7.609375 -4.132812 7.328125 -3.953125 7.144531 -3.59375 C 6.960938 -3.230469 6.867188 -2.765625 6.867188 -2.199219 C 6.867188 -1.621094 6.960938 -1.152344 7.148438 -0.800781 C 7.335938 -0.445312 7.609375 -0.265625 7.976562 -0.265625 C 8.339844 -0.265625 8.617188 -0.445312 8.804688 -0.800781 C 8.992188 -1.152344 9.089844 -1.621094 9.089844 -2.199219 M 9.757812 -9.269531 L 2.078125 0 L 1.183594 0 L 8.847656 -9.269531 Z "/>
</g>
</g>
</defs>
<g fill="rgb(100%, 100%, 100%)" fill-opacity="1">
<use xlink:href="#glyph-0-0" x="30" y="32.226562"/>
<use xlink:href="#glyph-0-1" x="37" y="32.226562"/>
<use xlink:href="#glyph-0-2" x="45" y="32.226562"/>
<use xlink:href="#glyph-0-1" x="49" y="32.226562"/>
<use xlink:href="#glyph-0-3" x="57" y="32.226562"/>
</g>
</svg>
