<?xml version="1.0" encoding="UTF-8"?>
<svg xmlns="http://www.w3.org/2000/svg" xmlns:xlink="http://www.w3.org/1999/xlink" width="1920" height="1080" viewBox="0 0 1920 1080">
<defs>
<g>
<g id="glyph-0-0">
<path d="M 7 -2.996094 C 7 -2.546875 6.917969 -2.125 6.753906 -1.730469 C 6.589844 -1.335938 6.375 -1 6.101562 -0.722656 C 5.785156 -0.40625 5.433594 -0.171875 5.046875 -0.0195312 C 4.664062 0.132812 4.265625 0.207031 3.847656 0.207031 C 3.367188 0.207031 2.929688 0.121094 2.539062 -0.0585938 C 2.148438 -0.234375 1.816406 -0.488281 1.542969 -0.8125 C 1.265625 -1.144531 1.050781 -1.546875 0.898438 -2.023438 C 0.746094 -2.5 0.671875 -3.035156 0.671875 -3.628906 C 0.671875 -5.179688 1.132812 -6.484375 2.054688 -7.546875 C 2.976562 -8.609375 4.210938 -9.246094 5.761719 -9.460938 L 5.878906 -8.875 L 5.292969 -8.769531 C 4.351562 -8.464844 3.621094 -7.992188 3.109375 -7.351562 C 2.59375 -6.707031 2.261719 -5.929688 2.109375 -5.015625 C 2.484375 -5.339844 2.851562 -5.570312 3.214844 -5.703125 C 3.582031 -5.835938 3.964844 -5.90625 4.367188 -5.90625 C 5.09375 -5.90625 5.710938 -5.628906 6.226562 -5.074219 C 6.742188 -4.515625 7 -3.824219 7 -2.996094 M 5.585938 -2.824219 C 5.585938 -3.527344 5.425781 -4.09375 5.101562 -4.519531 C 4.777344 -4.945312 4.34375 -5.15625 3.800781 -5.15625 C 3.476562 -5.15625 3.171875 -5.09375 2.894531 -4.972656 C 2.613281 -4.851562 2.34375 -4.648438 2.082031 -4.363281 C 2.078125 -4.308594 2.074219 -4.1875 2.0625 -4 C 2.054688 -3.8125 2.050781 -3.664062 2.050781 -3.554688 C 2.050781 -2.539062 2.21875 -1.742188 2.546875 -1.167969 C 2.878906 -0.59375 3.316406 -0.304688 3.859375 -0.304688 C 4.378906 -0.304688 4.792969 -0.53125 5.109375 -0.980469 C 5.425781 -1.429688 5.585938 -2.042969 5.585938 -2.824219 Z "/>
</g>
<g id="glyph-0-1">
<path d="M 5.265625 0 L 0.878906 0 L 0.878906 -0.460938 C 1.007812 -0.472656 1.210938 -0.488281 1.488281 -0.515625 C 1.761719 -0.546875 1.953125 -0.574219 2.058594 -0.605469 C 2.191406 -0.648438 2.296875 -0.71875 2.367188 -0.816406 C 2.4375 -0.914062 2.472656 -1.0625 2.472656 -1.257812 L 2.472656 -5.828125 L 0.851562 -5.828125 L 0.851562 -6.375 L 1.210938 -6.375 C 1.679688 -6.375 2.101562 -6.460938 2.46875 -6.632812 C 2.839844 -6.808594 3.109375 -6.996094 3.269531 -7.195312 L 3.808594 -7.195312 C 3.796875 -6.910156 3.78125 -6.582031 3.769531 -6.203125 C 3.757812 -5.828125 3.75 -5.488281 3.75 -5.1875 L 3.75 -1.328125 C 3.75 -1.175781 3.785156 -1.039062 3.851562 -0.921875 C 3.917969 -0.800781 4.015625 -0.714844 4.140625 -0.65625 C 4.253906 -0.609375 4.4375 -0.566406 4.695312 -0.527344 C 4.949219 -0.488281 5.140625 -0.464844 5.265625 -0.460938 Z "/>
</g>
<g id="glyph-0-2">
<path d="M 2.703125 -0.75 C 2.703125 -0.503906 2.613281 -0.296875 2.4375 -0.125 C 2.261719 0.0429688 2.054688 0.128906 1.808594 0.128906 C 1.566406 0.128906 1.355469 0.0429688 1.179688 -0.125 C 1.007812 -0.296875 0.917969 -0.503906 0.917969 -0.75 C 0.917969 -0.992188 1.007812 -1.203125 1.179688 -1.375 C 1.355469 -1.550781 1.566406 -1.640625 1.808594 -1.640625 C 2.054688 -1.640625 2.261719 -1.550781 2.4375 -1.375 C 2.613281 -1.203125 2.703125 -0.992188 2.703125 -0.75 Z "/>
</g>
<g id="glyph-0-3">
<path d="M 6.816406 0 L 0.714844 0 L 0.714844 -0.890625 C 0.832031 -1.023438 0.996094 -1.175781 1.203125 -1.34375 C 1.414062 -1.507812 1.660156 -1.691406 1.945312 -1.886719 C 2.121094 -2.003906 2.328125 -2.128906 2.570312 -2.269531 C 2.816406 -2.410156 3.089844 -2.558594 3.398438 -2.726562 C 3.742188 -2.90625 4.003906 -3.066406 4.1875 -3.207031 C 4.375 -3.34375 4.542969 -3.515625 4.695312 -3.71875 C 4.792969 -3.855469 4.875 -4.023438 4.933594 -4.222656 C 4.996094 -4.425781 5.027344 -4.714844 5.027344 -5.085938 C 5.027344 -5.628906 4.878906 -6.027344 4.589844 -6.28125 C 4.300781 -6.535156 3.925781 -6.660156 3.46875 -6.660156 C 3.1875 -6.660156 2.921875 -6.605469 2.667969 -6.492188 C 2.417969 -6.382812 2.230469 -6.230469 2.101562 -6.035156 C 2.132812 -5.894531 2.171875 -5.730469 2.21875 -5.539062 C 2.261719 -5.347656 2.285156 -5.164062 2.285156 -4.980469 C 2.285156 -4.816406 2.21875 -4.667969 2.078125 -4.539062 C 1.941406 -4.414062 1.742188 -4.347656 1.472656 -4.347656 C 1.253906 -4.347656 1.085938 -4.421875 0.96875 -4.574219 C 0.851562 -4.722656 0.792969 -4.925781 0.792969 -5.175781 C 0.792969 -5.410156 0.859375 -5.644531 0.988281 -5.882812 C 1.121094 -6.117188 1.304688 -6.335938 1.550781 -6.535156 C 1.789062 -6.730469 2.082031 -6.890625 2.433594 -7.011719 C 2.785156 -7.132812 3.167969 -7.195312 3.574219 -7.195312 C 4.464844 -7.195312 5.171875 -6.996094 5.691406 -6.597656 C 6.214844 -6.203125 6.476562 -5.671875 6.476562 -5.007812 C 6.476562 -4.691406 6.429688 -4.402344 6.335938 -4.144531 C 6.246094 -3.882812 6.09375 -3.652344 5.886719 -3.453125 C 5.65625 -3.234375 5.386719 -3.042969 5.078125 -2.886719 C 4.769531 -2.726562 4.300781 -2.507812 3.664062 -2.226562 C 3.289062 -2.054688 2.9375 -1.878906 2.609375 -1.695312 C 2.285156 -1.511719 2.019531 -1.332031 1.808594 -1.160156 L 6.816406 -1.160156 Z "/>
</g>
<g id="glyph-0-4">
<path d="M 5.128906 -7.050781 C 5.128906 -6.285156 4.925781 -5.695312 4.511719 -5.273438 C 4.097656 -4.851562 3.566406 -4.640625 2.917969 -4.640625 C 2.265625 -4.640625 1.734375 -4.851562 1.324219 -5.273438 C 0.914062 -5.695312 0.710938 -6.285156 0.710938 -7.050781 C 0.710938 -7.769531 0.910156 -8.351562 1.3125 -8.796875 C 1.714844 -9.238281 2.25 -9.460938 2.921875 -9.460938 C 3.585938 -9.460938 4.121094 -9.238281 4.523438 -8.796875 C 4.929688 -8.351562 5.128906 -7.769531 5.128906 -7.050781 M 4.03125 -7.050781 C 4.03125 -7.617188 3.9375 -8.082031 3.75 -8.441406 C 3.5625 -8.804688 3.289062 -8.984375 2.921875 -8.984375 C 2.550781 -8.984375 2.269531 -8.804688 2.085938 -8.441406 C 1.902344 -8.082031 1.808594 -7.617188 1.808594 -7.050781 C 1.808594 -6.472656 1.902344 -6.003906 2.089844 -5.648438 C 2.277344 -5.292969 2.550781 -5.117188 2.917969 -5.117188 C 3.28125 -5.117188 3.558594 -5.292969 3.746094 -5.648438 C 3.933594 -6.003906 4.03125 -6.472656 4.03125 -7.050781 M 10.1875 -2.199219 C 10.1875 -1.4375 9.984375 -0.84375 9.570312 -0.421875 C 9.15625 -0.00390625 8.625 0.207031 7.976562 0.207031 C 7.324219 0.207031 6.792969 -0.00390625 6.382812 -0.421875 C 5.972656 -0.84375 5.769531 -1.4375 5.769531 -2.199219 C 5.769531 -2.921875 5.96875 -3.503906 6.371094 -3.945312 C 6.773438 -4.386719 7.308594 -4.609375 7.980469 -4.609375 C 8.644531 -4.609375 9.179688 -4.386719 9.582031 -3.945312 C 9.988281 -3.503906 10.1875 -2.921875 10.1875 -2.199219 M 9.089844 -2.199219 C 9.089844 -2.765625 8.996094 -3.230469 8.808594 -3.59375 C 8.621094 -3.953125 8.347656 -4.132812 7.980469 -4.132812 C 7.609375 -4.132812 7.328125 -3.953125 7.144531 -3.59375 C 6.960938 -3.230469 6.867188 -2.765625 6.867188 -2.199219 C 6.867188 -1.621094 6.960938 -1.152344 7.148438 -0.800781 C 7.335938 -0.445312 7.609375 -0.265625 7.976562 -0.265625 C 8.339844 -0.265625 8.617188 -0.445312 8.804688 -0.800781 C 8.992188 -1.152344 9.089844 -1.621094 9.089844 -2.199219 M 9.757812 -9.269531 L 2.078125 0 L 1.183594 0 L 8.847656 -9.269531 Z "/>
</g>
</g>
</defs>
<g fill="rgb(100%, 100%, 100%)" fill-opacity="1">
<use xlink:href="#glyph-0-0" x="30" y="32.226562"/>
<use xlink:href="#glyph-0-1" x="38" y="32.226562"/>
<use xlink:href="#glyph-0-2" x="44" y="32.226562"/>
<use xlink:href="#glyph-0-3" x="48" y="32.226562"/>
<use xlink:href="#glyph-0-4" x="55" y="32.226562"/>
</g>
</svg>
